# xmcd
#
# Track frame offsets:
#	150
#	16478
#	32484
#	50835
#
# Disc length: 901 seconds
#
# Revision: 0
# Processed by: cddbd v1.5.2PL0 Copyright (c) Steve Scherf et al.
# Submitted via: audiograbber 1.83.01
#
DISCID=2c038304
DTITLE=The Candyman - Candyman [CDM)
DYEAR=1999
DGENRE=Dance
TTITLE0=Candyman (Radio Edit)
TTITLE1=Candyman (Original)
TTITLE2=Candyman (Extended)
TTITLE3=Mysterious Moments
EXTD=TR.
EXTT0=
EXTT1=
EXTT2=
EXTT3=
PLAYORDER=
